<svg width="555" height="560" viewBox="0 0 555 560" fill="none" xmlns="http://www.w3.org/2000/svg">
<path d="M420 270.278C423.889 268.333 429.722 272.222 429.722 276.111L437.5 305.278C439.444 309.167 435.556 315 431.667 315C427.778 316.944 421.944 313.056 421.944 309.167L414.167 280C412.222 276.111 414.167 270.278 420 270.278ZM196.389 52.5C194.444 48.6111 194.444 42.7778 198.333 40.8333L223.611 23.3333C227.5 21.3889 233.333 21.3889 235.278 25.2778C237.222 31.1111 237.222 35 233.333 38.8889L208.056 56.3889C204.167 56.3889 198.333 56.3889 196.389 52.5Z" fill="white"/>
<path fill-rule="evenodd" clip-rule="evenodd" d="M326.667 155.556C297.5 149.722 266.389 153.611 239.167 171.111C278.056 157.5 322.778 167.222 353.889 198.333C396.667 243.056 396.667 315 353.889 357.778C348.056 363.611 342.222 367.5 336.389 371.389C351.944 365.556 367.5 357.778 379.167 344.167C410.278 313.056 418.056 268.333 406.389 229.444C373.333 217.778 344.167 190.556 326.667 155.556Z" fill="#FFAE54"/>
<path d="M511.389 408.333C441.389 538.611 278.056 587.222 149.722 515.278C19.4444 445.278 -27.2222 280 42.7778 149.722C89.4445 64.1667 175 13.6111 266.389 9.72222C278.056 9.72222 287.778 15.5556 293.611 27.2222C299.445 38.8889 303.333 54.4444 301.389 70C301.389 75.8333 301.389 81.6667 301.389 87.5C301.389 114.722 309.167 141.944 320.833 165.278C264.444 143.889 200.278 167.222 171.111 221.667C138.056 281.944 161.389 355.833 219.722 388.889C278.056 421.944 353.889 398.611 385 340.278C402.5 307.222 404.445 268.333 390.833 235.278C414.167 246.944 439.445 252.778 466.667 252.778C482.222 252.778 495.833 250.833 511.389 246.944C519.167 245 528.889 245 534.722 248.889C540.556 252.778 544.445 256.667 544.445 262.5C546.389 311.111 534.722 361.667 511.389 408.333Z" fill="url(#paint0_radial_401_2)" stroke="#AC562A" stroke-width="1.0716"/>
<path d="M441.389 355.833L451.111 351.944C458.889 371.389 449.167 388.889 443.333 402.5C443.333 402.5 443.333 402.5 443.333 404.444C439.444 412.222 435.556 418.056 435.556 423.889C433.611 433.611 433.611 443.333 435.556 449.167C437.5 455 443.333 460.833 451.111 462.778C456.944 464.722 466.667 462.778 478.333 455C525 400.556 546.389 330.556 542.5 264.444C542.5 258.611 538.611 252.778 532.778 248.889C526.944 245 517.222 245 509.444 246.944C495.833 250.833 480.278 252.778 466.667 252.778C439.444 252.778 414.167 246.944 390.833 233.333C404.444 266.389 402.5 303.333 386.944 336.389C385 342.222 381.111 346.111 377.222 351.944C385 350 392.778 346.111 404.444 338.333C418.056 328.611 435.556 338.333 441.389 355.833ZM441.389 355.833C447.222 371.389 439.444 385 433.611 398.611C429.722 406.389 425.833 414.167 423.889 421.944L441.389 355.833ZM254.722 157.5C227.5 165.278 206.111 161.389 190.556 153.611C175 143.889 161.389 130.278 155.556 114.722C147.778 97.2222 145.833 79.7222 149.722 64.1667C153.611 48.6111 161.389 36.9444 173.056 31.1111C206.111 17.5 241.111 9.72222 274.167 9.72222C283.889 9.72222 291.667 15.5556 297.5 25.2778C303.333 35 305.278 48.6111 303.333 60.2778C301.389 68.0556 301.389 77.7778 301.389 87.5C301.389 114.722 309.167 141.944 320.833 165.278C299.444 155.556 276.111 153.611 254.722 157.5Z" fill="#AC562A" stroke="#AC562A" stroke-width="1.0716"/>
<path d="M73.8889 231.389C81.4061 231.389 87.5 225.295 87.5 217.778C87.5 210.261 81.4061 204.167 73.8889 204.167C66.3717 204.167 60.2778 210.261 60.2778 217.778C60.2778 225.295 66.3717 231.389 73.8889 231.389Z" fill="#AC562A"/>
<path d="M276.111 474.444C283.628 474.444 289.722 468.351 289.722 460.833C289.722 453.316 283.628 447.222 276.111 447.222C268.594 447.222 262.5 453.316 262.5 460.833C262.5 468.351 268.594 474.444 276.111 474.444Z" fill="#AC562A"/>
<path d="M190.556 495.833C203.442 495.833 213.889 485.387 213.889 472.5C213.889 459.613 203.442 449.167 190.556 449.167C177.669 449.167 167.222 459.613 167.222 472.5C167.222 485.387 177.669 495.833 190.556 495.833Z" fill="#AC562A"/>
<defs>
<radialGradient id="paint0_radial_401_2" cx="0" cy="0" r="1" gradientUnits="userSpaceOnUse" gradientTransform="translate(276.815 279.608) rotate(90) scale(279.571 276.754)">
<stop offset="0.3335" stop-color="#F7B450"/>
<stop offset="0.6477" stop-color="#FFC977"/>
<stop offset="1" stop-color="#FF9900"/>
</radialGradient>
</defs>
</svg>
